<svg 
 xmlns="http://www.w3.org/2000/svg"
 xmlns:xlink="http://www.w3.org/1999/xlink"
 width="13px" height="16px">
<path fill-rule="evenodd"  fill="rgb(0, 0, 0)"
 d="M8.372,15.626 C4.998,15.626 2.434,13.639 1.672,10.506 L1.084,10.506 C0.487,10.506 0.000,10.020 0.000,9.423 C0.000,8.826 0.487,8.340 1.084,8.340 L1.459,8.340 C1.459,8.024 1.462,7.674 1.467,7.354 L1.085,7.354 C0.487,7.354 0.000,6.868 0.000,6.271 C0.000,5.674 0.487,5.188 1.085,5.188 L1.740,5.188 C2.599,2.056 5.185,-0.000 8.372,-0.000 C9.774,-0.000 11.125,0.470 12.280,1.358 C12.508,1.534 12.656,1.790 12.693,2.077 C12.730,2.364 12.653,2.648 12.476,2.877 C12.269,3.145 11.956,3.299 11.617,3.299 C11.379,3.299 11.143,3.219 10.954,3.073 C10.184,2.480 9.291,2.166 8.372,2.166 C6.368,2.166 4.747,3.322 4.020,5.189 L10.191,5.189 C10.789,5.189 11.275,5.675 11.275,6.272 C11.275,6.869 10.789,7.355 10.191,7.355 L3.635,7.355 C3.630,7.663 3.628,8.023 3.628,8.341 L9.730,8.341 C10.328,8.341 10.814,8.827 10.814,9.424 C10.814,10.021 10.328,10.507 9.730,10.507 L3.929,10.507 C4.582,12.375 6.183,13.461 8.372,13.461 C9.323,13.461 10.243,13.125 11.033,12.491 C11.225,12.336 11.466,12.251 11.713,12.251 C12.043,12.251 12.351,12.399 12.558,12.656 C12.739,12.881 12.822,13.164 12.791,13.451 C12.760,13.739 12.618,13.997 12.392,14.178 C11.213,15.125 9.823,15.626 8.372,15.626 L8.372,15.626 Z"/>
</svg>